<mxfile host="app.diagrams.net" modified="2022-12-16T08:57:50.737Z" agent="5.0 (Windows NT 10.0; Win64; x64) AppleWebKit/537.36 (KHTML, like Gecko) Chrome/108.0.0.0 Safari/537.36" version="20.7.3" etag="8VJHqd1oz89HMcSkSvAc" type="github">
  <diagram id="nl0Q3Yhk7iCU5J6AGeel" name="第 1 页">
    <mxGraphModel dx="2074" dy="1124" grid="1" gridSize="10" guides="1" tooltips="1" connect="1" arrows="1" fold="1" page="1" pageScale="1" pageWidth="827" pageHeight="1169" math="0" shadow="0">
      <root>
        <mxCell id="0" />
        <mxCell id="1" parent="0" />
        <mxCell id="9LtaZEyPswom-MRXVNyf-3" value="" style="edgeStyle=orthogonalEdgeStyle;rounded=0;orthogonalLoop=1;jettySize=auto;html=1;" edge="1" parent="1" source="9LtaZEyPswom-MRXVNyf-1" target="9LtaZEyPswom-MRXVNyf-2">
          <mxGeometry relative="1" as="geometry" />
        </mxCell>
        <mxCell id="9LtaZEyPswom-MRXVNyf-1" value="1" style="text;strokeColor=none;fillColor=none;html=1;fontSize=24;fontStyle=1;verticalAlign=middle;align=center;" vertex="1" parent="1">
          <mxGeometry x="100" y="320" width="50" height="40" as="geometry" />
        </mxCell>
        <mxCell id="9LtaZEyPswom-MRXVNyf-5" value="" style="edgeStyle=orthogonalEdgeStyle;rounded=0;orthogonalLoop=1;jettySize=auto;html=1;" edge="1" parent="1" source="9LtaZEyPswom-MRXVNyf-2" target="9LtaZEyPswom-MRXVNyf-4">
          <mxGeometry relative="1" as="geometry" />
        </mxCell>
        <mxCell id="9LtaZEyPswom-MRXVNyf-2" value="2" style="text;strokeColor=none;fillColor=none;html=1;fontSize=24;fontStyle=1;verticalAlign=middle;align=center;" vertex="1" parent="1">
          <mxGeometry x="230" y="320" width="50" height="40" as="geometry" />
        </mxCell>
        <mxCell id="9LtaZEyPswom-MRXVNyf-7" value="" style="edgeStyle=orthogonalEdgeStyle;rounded=0;orthogonalLoop=1;jettySize=auto;html=1;" edge="1" parent="1" source="9LtaZEyPswom-MRXVNyf-4" target="9LtaZEyPswom-MRXVNyf-6">
          <mxGeometry relative="1" as="geometry" />
        </mxCell>
        <mxCell id="9LtaZEyPswom-MRXVNyf-4" value="3" style="text;strokeColor=none;fillColor=none;html=1;fontSize=24;fontStyle=1;verticalAlign=middle;align=center;" vertex="1" parent="1">
          <mxGeometry x="360" y="320" width="50" height="40" as="geometry" />
        </mxCell>
        <mxCell id="9LtaZEyPswom-MRXVNyf-6" value="4" style="text;strokeColor=none;fillColor=none;html=1;fontSize=24;fontStyle=1;verticalAlign=middle;align=center;" vertex="1" parent="1">
          <mxGeometry x="490" y="320" width="50" height="40" as="geometry" />
        </mxCell>
        <mxCell id="9LtaZEyPswom-MRXVNyf-9" value="100" style="text;strokeColor=none;fillColor=none;html=1;fontSize=24;fontStyle=1;verticalAlign=middle;align=center;" vertex="1" parent="1">
          <mxGeometry x="100" y="370" width="50" height="40" as="geometry" />
        </mxCell>
        <mxCell id="9LtaZEyPswom-MRXVNyf-10" value="200" style="text;strokeColor=none;fillColor=none;html=1;fontSize=24;fontStyle=1;verticalAlign=middle;align=center;" vertex="1" parent="1">
          <mxGeometry x="100" y="420" width="50" height="40" as="geometry" />
        </mxCell>
        <mxCell id="9LtaZEyPswom-MRXVNyf-11" value="样例1可以生成三个连通图，第一个包含4个节点，第二个和第三个都包含1个节点" style="text;strokeColor=none;fillColor=none;html=1;fontSize=24;fontStyle=1;verticalAlign=middle;align=center;" vertex="1" parent="1">
          <mxGeometry x="210" y="260" width="515" height="50" as="geometry" />
        </mxCell>
      </root>
    </mxGraphModel>
  </diagram>
</mxfile>
